# xmcd
# 
# Track frame offsets:
#     150
#     18392
#     48710
#     63380
#     78210
#     92965
#     114537
#     127322
#     154942
#     166275
#     181207
#     199882
#     215790
#     230855
#     249905
#     262412
#     279820
#     293037
#     304805
#     319772
# 
# Disc length: 4507
# 
# Revision: 0
# Processed by: cddbd v1.5.2PL0 Copyright (c) Steve Scherf et al.
# Submitted via: fre:ac v1.0.17
# 
DISCID=31119914
DTITLE=Brownie and Sonny - Double Play
DYEAR=0
DGENRE=Blues
TTITLE0=I'm a Stranger Here
TTITLE1=Everybody's Blue
TTITLE2=Trouble in Mind
TTITLE3=Walk On
TTITLE4=Down by the Riverside
TTITLE5=Blues for the Lowlands
TTITLE6=Right on that Shore
TTITLE7=Blowin' the Fuses
TTITLE8=Cornbread, Meat and Molasses
TTITLE9=Ham and Eggs
TTITLE10=Lost John
TTITLE11=Chain Gang Blues
TTITLE12=It Takes A Chain Gang Man
TTITLE13=Betty and Dupree
TTITLE14=Stackhole
TTITLE15=Rock Me Momma
TTITLE16=Chain Gang Special
TTITLE17=Long John
TTITLE18=Pick A Bale of Cotton
TTITLE19=Red River
EXTD=
EXTT0=
EXTT1=
EXTT2=
EXTT3=
EXTT4=
EXTT5=
EXTT6=
EXTT7=
EXTT8=
EXTT9=
EXTT10=
EXTT11=
EXTT12=
EXTT13=
EXTT14=
EXTT15=
EXTT16=
EXTT17=
EXTT18=
EXTT19=
PLAYORDER=
